<svg xmlns="http://www.w3.org/2000/svg" xmlns:xlink="http://www.w3.org/1999/xlink" width="50" zoomAndPan="magnify" viewBox="0 0 37.5 37.499999" height="50" preserveAspectRatio="xMidYMid meet" version="1.0"><defs><clipPath id="0596cf7930"><path d="M 0 1.226562 L 37.007812 1.226562 L 37.007812 37.007812 L 0 37.007812 Z M 0 1.226562 " clip-rule="nonzero"/></clipPath></defs><g clip-path="url(#0596cf7930)"><path fill="#2f4bad" d="M 8.847656 37.199219 C 8.75 37.199219 8.652344 37.171875 8.5625 37.125 C 8.375 37.023438 8.257812 36.824219 8.257812 36.613281 L 8.257812 30.375 L 5.367188 30.375 C 2.40625 30.375 0 27.984375 0 25.046875 L 0 6.585938 C 0 3.648438 2.40625 1.257812 5.367188 1.257812 L 32.128906 1.257812 C 35.089844 1.257812 37.5 3.648438 37.5 6.585938 L 37.5 25.046875 C 37.5 27.984375 35.089844 30.375 32.128906 30.375 L 19.941406 30.375 C 16.347656 32.621094 12.753906 34.863281 9.164062 37.109375 C 9.066406 37.167969 8.957031 37.199219 8.847656 37.199219 Z M 8.847656 37.199219 " fill-opacity="1" fill-rule="nonzero"/></g></svg>