<svg xmlns="http://www.w3.org/2000/svg" xmlns:xlink="http://www.w3.org/1999/xlink" width="50" zoomAndPan="magnify" viewBox="0 0 37.5 37.499999" height="50" preserveAspectRatio="xMidYMid meet" version="1.0"><defs><clipPath id="7304c39ea5"><path d="M 0 0 L 32.25 0 L 32.25 37.007812 L 0 37.007812 Z M 0 0 " clip-rule="nonzero"/></clipPath></defs><path fill="#2f4bad" d="M 29.085938 10.714844 L 30.300781 10.714844 C 30.667969 10.722656 30.921875 10.558594 31.066406 10.226562 C 31.214844 9.890625 31.15625 9.59375 30.898438 9.335938 L 22.886719 1.371094 C 22.632812 1.144531 22.347656 1.097656 22.035156 1.230469 C 21.71875 1.363281 21.558594 1.601562 21.542969 1.941406 L 21.542969 3.152344 C 21.542969 3.648438 21.59375 4.140625 21.6875 4.625 C 21.785156 5.109375 21.925781 5.582031 22.117188 6.039062 C 22.304688 6.496094 22.539062 6.929688 22.8125 7.34375 C 23.085938 7.753906 23.398438 8.136719 23.75 8.488281 C 24.097656 8.839844 24.480469 9.152344 24.890625 9.429688 C 25.304688 9.703125 25.738281 9.9375 26.195312 10.128906 C 26.65625 10.320312 27.125 10.464844 27.613281 10.5625 C 28.097656 10.660156 28.589844 10.710938 29.085938 10.714844 Z M 29.085938 10.714844 " fill-opacity="1" fill-rule="nonzero"/><g clip-path="url(#7304c39ea5)"><path fill="#2f4bad" d="M 29.085938 13.394531 C 28.414062 13.394531 27.746094 13.328125 27.082031 13.195312 C 26.421875 13.066406 25.777344 12.871094 25.15625 12.617188 C 24.53125 12.359375 23.941406 12.042969 23.378906 11.667969 C 22.816406 11.296875 22.296875 10.871094 21.820312 10.394531 C 21.34375 9.921875 20.917969 9.402344 20.542969 8.84375 C 20.167969 8.285156 19.851562 7.695312 19.59375 7.074219 C 19.335938 6.453125 19.140625 5.8125 19.007812 5.152344 C 18.878906 4.492188 18.8125 3.828125 18.8125 3.152344 C 18.8125 2.738281 18.730469 2.335938 18.570312 1.949219 C 18.410156 1.5625 18.183594 1.222656 17.886719 0.925781 C 17.589844 0.628906 17.25 0.402344 16.863281 0.242188 C 16.476562 0.0820312 16.074219 0 15.65625 0 L 7.597656 0 C 7.097656 0 6.605469 0.046875 6.113281 0.144531 C 5.625 0.238281 5.152344 0.382812 4.691406 0.570312 C 4.230469 0.761719 3.792969 0.992188 3.378906 1.269531 C 2.964844 1.546875 2.582031 1.859375 2.226562 2.210938 C 1.875 2.5625 1.5625 2.941406 1.285156 3.355469 C 1.007812 3.769531 0.773438 4.207031 0.582031 4.664062 C 0.390625 5.125 0.25 5.597656 0.152344 6.085938 C 0.0546875 6.570312 0.0078125 7.0625 0.0078125 7.558594 L 0.0078125 29.941406 C 0.0078125 30.4375 0.0546875 30.929688 0.152344 31.414062 C 0.25 31.902344 0.390625 32.375 0.582031 32.835938 C 0.773438 33.292969 1.007812 33.730469 1.285156 34.144531 C 1.5625 34.558594 1.875 34.9375 2.226562 35.289062 C 2.582031 35.640625 2.964844 35.953125 3.378906 36.230469 C 3.792969 36.507812 4.230469 36.738281 4.691406 36.929688 C 5.152344 37.117188 5.625 37.261719 6.113281 37.355469 C 6.605469 37.453125 7.097656 37.5 7.597656 37.5 L 24.675781 37.5 C 25.171875 37.5 25.664062 37.449219 26.152344 37.351562 C 26.640625 37.253906 27.113281 37.109375 27.570312 36.921875 C 28.03125 36.730469 28.46875 36.496094 28.878906 36.222656 C 29.292969 35.945312 29.675781 35.632812 30.027344 35.28125 C 30.378906 34.929688 30.691406 34.546875 30.96875 34.136719 C 31.246094 33.722656 31.476562 33.289062 31.667969 32.828125 C 31.859375 32.371094 32 31.898438 32.097656 31.414062 C 32.195312 30.925781 32.242188 30.4375 32.242188 29.941406 L 32.242188 16.546875 C 32.242188 16.128906 32.164062 15.726562 32.003906 15.339844 C 31.84375 14.957031 31.613281 14.613281 31.320312 14.320312 C 31.023438 14.023438 30.683594 13.796875 30.296875 13.636719 C 29.910156 13.472656 29.503906 13.394531 29.085938 13.394531 Z M 14.78125 29.464844 L 8.066406 29.464844 C 7.886719 29.464844 7.714844 29.429688 7.550781 29.363281 C 7.386719 29.292969 7.242188 29.199219 7.117188 29.070312 C 6.988281 28.945312 6.894531 28.800781 6.824219 28.636719 C 6.757812 28.472656 6.722656 28.300781 6.722656 28.125 C 6.722656 27.949219 6.757812 27.777344 6.824219 27.613281 C 6.894531 27.449219 6.988281 27.304688 7.117188 27.179688 C 7.242188 27.050781 7.386719 26.957031 7.550781 26.886719 C 7.714844 26.820312 7.886719 26.785156 8.066406 26.785156 L 14.78125 26.785156 C 14.960938 26.785156 15.132812 26.820312 15.296875 26.886719 C 15.460938 26.957031 15.605469 27.050781 15.730469 27.179688 C 15.859375 27.304688 15.953125 27.449219 16.023438 27.613281 C 16.089844 27.777344 16.125 27.949219 16.125 28.125 C 16.125 28.300781 16.089844 28.472656 16.023438 28.636719 C 15.953125 28.800781 15.859375 28.945312 15.730469 29.070312 C 15.605469 29.199219 15.460938 29.292969 15.296875 29.363281 C 15.132812 29.429688 14.960938 29.464844 14.78125 29.464844 Z M 24.183594 24.105469 L 8.066406 24.105469 C 7.886719 24.105469 7.714844 24.074219 7.550781 24.003906 C 7.386719 23.9375 7.242188 23.839844 7.117188 23.714844 C 6.988281 23.589844 6.894531 23.445312 6.824219 23.28125 C 6.757812 23.117188 6.722656 22.945312 6.722656 22.769531 C 6.722656 22.589844 6.757812 22.417969 6.824219 22.253906 C 6.894531 22.089844 6.988281 21.945312 7.117188 21.820312 C 7.242188 21.695312 7.386719 21.597656 7.550781 21.53125 C 7.714844 21.460938 7.886719 21.429688 8.066406 21.429688 L 24.183594 21.429688 C 24.363281 21.429688 24.535156 21.460938 24.699219 21.53125 C 24.863281 21.597656 25.007812 21.695312 25.132812 21.820312 C 25.261719 21.945312 25.355469 22.089844 25.425781 22.253906 C 25.492188 22.417969 25.527344 22.589844 25.527344 22.769531 C 25.527344 22.945312 25.492188 23.117188 25.425781 23.28125 C 25.355469 23.445312 25.261719 23.589844 25.132812 23.714844 C 25.007812 23.839844 24.863281 23.9375 24.699219 24.003906 C 24.535156 24.074219 24.363281 24.105469 24.183594 24.105469 Z M 24.183594 18.75 L 8.066406 18.75 C 7.886719 18.75 7.714844 18.714844 7.550781 18.648438 C 7.386719 18.582031 7.242188 18.484375 7.117188 18.359375 C 6.988281 18.230469 6.894531 18.085938 6.824219 17.921875 C 6.757812 17.757812 6.722656 17.589844 6.722656 17.410156 C 6.722656 17.234375 6.757812 17.0625 6.824219 16.898438 C 6.894531 16.734375 6.988281 16.589844 7.117188 16.464844 C 7.242188 16.339844 7.386719 16.242188 7.550781 16.171875 C 7.714844 16.105469 7.886719 16.070312 8.066406 16.070312 L 24.183594 16.070312 C 24.363281 16.070312 24.535156 16.105469 24.699219 16.171875 C 24.863281 16.242188 25.007812 16.339844 25.132812 16.464844 C 25.261719 16.589844 25.355469 16.734375 25.425781 16.898438 C 25.492188 17.0625 25.527344 17.234375 25.527344 17.410156 C 25.527344 17.589844 25.492188 17.757812 25.425781 17.921875 C 25.355469 18.085938 25.261719 18.230469 25.132812 18.359375 C 25.007812 18.484375 24.863281 18.582031 24.699219 18.648438 C 24.535156 18.714844 24.363281 18.75 24.183594 18.75 Z M 24.183594 18.75 " fill-opacity="1" fill-rule="nonzero"/></g></svg>