<svg xmlns="http://www.w3.org/2000/svg" xmlns:xlink="http://www.w3.org/1999/xlink" width="500" zoomAndPan="magnify" viewBox="0 0 375 374.999991" height="500" preserveAspectRatio="xMidYMid meet" version="1.0"><defs><clipPath id="ddc2a68d47"><path d="M 0 71.25 L 375 71.25 L 375 373 L 0 373 Z M 0 71.25 " clip-rule="nonzero"/></clipPath></defs><g clip-path="url(#ddc2a68d47)"><path fill="#000000" d="M 366.347656 262.464844 L 305.183594 201.753906 C 294.160156 190.804688 276.335938 190.878906 265.402344 201.898438 C 254.453125 212.921875 254.527344 230.746094 265.546875 241.695312 L 278.699219 254.746094 L 120.21875 254.746094 C 85.082031 254.746094 56.605469 226.269531 56.605469 191.136719 C 56.605469 191.121094 56.605469 191.109375 56.605469 191.109375 C 56.605469 156 85.082031 127.523438 120.21875 127.523438 L 322.066406 127.523438 C 337.589844 127.523438 350.203125 114.921875 350.203125 99.386719 C 350.203125 83.863281 337.589844 71.25 322.066406 71.25 C 322.066406 71.25 206.351562 71.25 120.21875 71.25 C 54.011719 71.25 0.332031 124.929688 0.332031 191.136719 C 0.332031 257.351562 54.011719 311.019531 120.21875 311.019531 L 278.503906 311.019531 L 265.402344 324.230469 C 254.453125 335.253906 254.527344 353.078125 265.546875 364.015625 C 276.570312 374.964844 294.394531 374.890625 305.328125 363.867188 L 363.304688 305.480469 C 370.203125 300.351562 374.667969 292.132812 374.667969 282.882812 L 374.667969 282.320312 C 374.644531 274.859375 371.644531 267.714844 366.347656 262.464844 Z M 366.347656 262.464844 " fill-opacity="1" fill-rule="nonzero"/></g></svg>