<svg xmlns="http://www.w3.org/2000/svg" xmlns:xlink="http://www.w3.org/1999/xlink" width="50" zoomAndPan="magnify" viewBox="0 0 37.5 37.499999" height="50" preserveAspectRatio="xMidYMid meet" version="1.0"><defs><clipPath id="fcb78e3c33"><path d="M 3 8.671875 L 33 8.671875 L 33 37.007812 L 3 37.007812 Z M 3 8.671875 " clip-rule="nonzero"/></clipPath><clipPath id="44a01d7df1"><path d="M 0 16 L 37.007812 16 L 37.007812 28 L 0 28 Z M 0 16 " clip-rule="nonzero"/></clipPath></defs><g clip-path="url(#fcb78e3c33)"><path fill="#fac959" d="M 32.128906 22.917969 C 32.128906 23.855469 32.039062 24.78125 31.855469 25.699219 C 31.667969 26.617188 31.394531 27.507812 31.035156 28.371094 C 30.671875 29.238281 30.226562 30.058594 29.703125 30.835938 C 29.175781 31.613281 28.578125 32.332031 27.910156 32.996094 C 27.238281 33.65625 26.511719 34.246094 25.726562 34.765625 C 24.9375 35.289062 24.105469 35.726562 23.234375 36.085938 C 22.359375 36.441406 21.457031 36.710938 20.527344 36.894531 C 19.601562 37.078125 18.664062 37.167969 17.714844 37.167969 C 16.769531 37.167969 15.832031 37.078125 14.90625 36.894531 C 13.976562 36.710938 13.074219 36.441406 12.199219 36.085938 C 11.328125 35.726562 10.496094 35.289062 9.707031 34.765625 C 8.921875 34.246094 8.195312 33.65625 7.523438 32.996094 C 6.855469 32.332031 6.257812 31.613281 5.730469 30.835938 C 5.207031 30.058594 4.761719 29.238281 4.398438 28.371094 C 4.039062 27.507812 3.765625 26.617188 3.578125 25.699219 C 3.394531 24.78125 3.300781 23.855469 3.300781 22.917969 C 3.300781 21.984375 3.394531 21.058594 3.578125 20.140625 C 3.765625 19.222656 4.039062 18.332031 4.398438 17.464844 C 4.761719 16.601562 5.207031 15.78125 5.730469 15.003906 C 6.257812 14.222656 6.855469 13.503906 7.523438 12.84375 C 8.195312 12.179688 8.921875 11.589844 9.707031 11.070312 C 10.496094 10.550781 11.328125 10.113281 12.199219 9.753906 C 13.074219 9.394531 13.976562 9.125 14.90625 8.941406 C 15.832031 8.761719 16.769531 8.667969 17.714844 8.667969 C 18.664062 8.667969 19.601562 8.761719 20.527344 8.941406 C 21.457031 9.125 22.359375 9.394531 23.234375 9.753906 C 24.105469 10.113281 24.9375 10.550781 25.726562 11.070312 C 26.511719 11.589844 27.238281 12.179688 27.910156 12.84375 C 28.578125 13.503906 29.175781 14.222656 29.703125 15.003906 C 30.226562 15.78125 30.671875 16.601562 31.035156 17.464844 C 31.394531 18.332031 31.667969 19.222656 31.855469 20.140625 C 32.039062 21.058594 32.128906 21.984375 32.128906 22.917969 Z M 32.128906 22.917969 " fill-opacity="1" fill-rule="nonzero"/></g><path fill="#36384e" d="M 27 17.039062 C 27.378906 16.871094 27.550781 16.433594 27.382812 16.054688 C 27.214844 15.679688 26.769531 15.507812 26.390625 15.675781 L 21.671875 17.75 C 21.289062 17.914062 21.117188 18.355469 21.285156 18.730469 C 21.378906 18.9375 21.554688 19.082031 21.753906 19.144531 C 22.261719 19.300781 22.769531 19.453125 23.261719 19.621094 C 23.734375 19.785156 24.171875 19.953125 24.539062 20.132812 L 24.574219 20.148438 C 25.292969 20.503906 25.84375 20.949219 26.390625 21.398438 L 26.421875 21.425781 C 26.753906 21.675781 27.230469 21.609375 27.480469 21.285156 C 27.734375 20.957031 27.671875 20.484375 27.339844 20.238281 L 27.332031 20.230469 C 26.722656 19.734375 26.109375 19.242188 25.246094 18.816406 L 25.210938 18.796875 C 24.855469 18.621094 24.472656 18.46875 24.078125 18.324219 Z M 10.617188 15.648438 C 10.257812 15.445312 10.128906 14.992188 10.335938 14.632812 C 10.539062 14.277344 11 14.152344 11.363281 14.355469 L 15.847656 16.886719 C 16.210938 17.089844 16.335938 17.546875 16.128906 17.902344 C 16.019531 18.097656 15.828125 18.222656 15.621094 18.265625 C 15.101562 18.371094 14.582031 18.472656 14.074219 18.59375 C 13.589844 18.707031 13.132812 18.832031 12.75 18.972656 L 12.714844 18.984375 C 11.964844 19.269531 11.371094 19.65625 10.777344 20.046875 L 10.746094 20.070312 C 10.390625 20.289062 9.925781 20.175781 9.707031 19.824219 C 9.488281 19.476562 9.597656 19.011719 9.953125 18.796875 L 9.964844 18.792969 C 10.621094 18.359375 11.28125 17.929688 12.179688 17.59375 L 12.21875 17.574219 C 12.589844 17.4375 12.984375 17.324219 13.394531 17.21875 Z M 10.617188 15.648438 " fill-opacity="1" fill-rule="nonzero"/><path fill="#7e4119" d="M 8.429688 23.867188 C 10.992188 23.023438 13.554688 22.179688 15.902344 21.863281 C 18.25 21.546875 20.386719 21.757812 22.308594 22.179688 C 24.230469 22.601562 25.9375 23.234375 27.648438 23.867188 C 27.21875 25.558594 26.792969 27.246094 25.832031 28.828125 C 24.871094 30.414062 23.375 31.890625 21.453125 32.628906 C 19.53125 33.367188 17.183594 33.367188 15.15625 32.628906 C 13.125 31.890625 11.417969 30.414062 10.351562 28.828125 C 9.28125 27.246094 8.855469 25.558594 8.429688 23.867188 Z M 8.429688 23.867188 " fill-opacity="1" fill-rule="evenodd"/><path fill="#ef2945" d="M 24.929688 30.085938 C 24.023438 31.164062 22.851562 32.09375 21.453125 32.628906 C 19.53125 33.367188 17.183594 33.367188 15.15625 32.628906 C 13.632812 32.074219 12.289062 31.105469 11.261719 29.984375 C 12.0625 29.277344 12.910156 28.640625 13.875 28.195312 C 15.472656 27.457031 17.398438 27.246094 19 27.351562 C 20.597656 27.457031 21.882812 27.878906 23.054688 28.617188 C 23.707031 29.027344 24.328125 29.535156 24.929688 30.085938 Z M 24.929688 30.085938 " fill-opacity="1" fill-rule="evenodd"/><g clip-path="url(#44a01d7df1)"><path fill="#1b67f4" d="M 30.207031 18.351562 C 29.722656 18.644531 30.484375 24.808594 31.363281 26.230469 C 32.242188 27.65625 34.121094 28.105469 35.558594 27.234375 C 37 26.367188 37.453125 24.511719 36.574219 23.089844 C 35.695312 21.664062 30.695312 18.058594 30.207031 18.351562 Z M 7.289062 16.867188 C 7.777344 17.160156 7.011719 23.324219 6.136719 24.746094 C 5.257812 26.167969 3.378906 26.621094 1.941406 25.75 C 0.5 24.882812 0.046875 23.027344 0.925781 21.601562 C 1.800781 20.179688 6.804688 16.574219 7.289062 16.867188 Z M 7.289062 16.867188 " fill-opacity="1" fill-rule="evenodd"/></g></svg>