<svg xmlns="http://www.w3.org/2000/svg" xmlns:xlink="http://www.w3.org/1999/xlink" width="50" zoomAndPan="magnify" viewBox="0 0 37.5 37.499999" height="50" preserveAspectRatio="xMidYMid meet" version="1.0"><defs><clipPath id="66e4c1d65f"><path d="M 0 4.46875 L 34.5 4.46875 L 34.5 37.007812 L 0 37.007812 Z M 0 4.46875 " clip-rule="nonzero"/></clipPath></defs><g clip-path="url(#66e4c1d65f)"><path fill="#2f4bad" d="M 33.8125 18.304688 L 18.527344 4.960938 C 17.773438 4.304688 16.65625 4.304688 15.90625 4.964844 L 0.683594 18.3125 C -0.699219 19.523438 0.15625 21.804688 1.992188 21.804688 C 3.09375 21.804688 3.984375 22.699219 3.984375 23.800781 L 3.984375 35.453125 C 3.984375 36.554688 4.878906 37.445312 5.980469 37.445312 L 12.957031 37.445312 L 12.957031 27.234375 C 12.957031 26.609375 13.457031 26.105469 14.078125 26.105469 L 20.417969 26.105469 C 21.042969 26.105469 21.542969 26.609375 21.542969 27.234375 L 21.542969 37.445312 L 28.167969 37.445312 C 29.273438 37.445312 30.164062 36.554688 30.164062 35.453125 L 30.164062 23.800781 C 30.164062 22.699219 31.054688 21.804688 32.152344 21.804688 L 32.507812 21.804688 C 34.34375 21.804688 35.203125 19.515625 33.8125 18.304688 " fill-opacity="1" fill-rule="nonzero"/></g></svg>