<svg xmlns="http://www.w3.org/2000/svg" xmlns:xlink="http://www.w3.org/1999/xlink" width="50" zoomAndPan="magnify" viewBox="0 0 37.5 37.499999" height="50" preserveAspectRatio="xMidYMid meet" version="1.0"><defs><clipPath id="ed8c0f1786"><path d="M 6 9 L 37.007812 9 L 37.007812 37.007812 L 6 37.007812 Z M 6 9 " clip-rule="nonzero"/></clipPath></defs><g clip-path="url(#ed8c0f1786)"><path fill="#2f4bad" d="M 8.273438 36.632812 C 8.949219 37.164062 9.804688 37.480469 10.734375 37.480469 L 33.386719 37.480469 C 33.761719 37.480469 34.121094 37.429688 34.464844 37.332031 L 28.277344 26.246094 C 28.09375 25.917969 27.777344 25.683594 27.410156 25.601562 C 27.046875 25.515625 26.660156 25.589844 26.351562 25.808594 L 22.980469 28.160156 L 24.191406 30.324219 C 24.550781 30.964844 24.324219 31.777344 23.679688 32.136719 C 23.039062 32.496094 22.226562 32.269531 21.867188 31.625 C 21.867188 31.625 17.753906 24.289062 17.753906 24.289062 C 17.515625 23.871094 17.074219 23.609375 16.589844 23.609375 C 16.109375 23.609375 15.664062 23.871094 15.429688 24.289062 C 13.3125 28.066406 9.1875 35.078125 8.273438 36.632812 Z M 6.761719 33.945312 C 8.332031 31.269531 11.382812 26.058594 13.101562 22.984375 C 13.808594 21.726562 15.144531 20.945312 16.589844 20.945312 C 18.035156 20.945312 19.371094 21.726562 20.078125 22.984375 L 21.667969 25.824219 L 24.824219 23.621094 C 25.75 22.976562 26.90625 22.75 28.007812 23 C 29.105469 23.253906 30.050781 23.960938 30.601562 24.945312 C 32.199219 27.792969 35.519531 33.75 36.652344 35.789062 C 37.113281 35.136719 37.386719 34.339844 37.386719 33.480469 C 37.386719 28.648438 37.386719 18.484375 37.386719 13.652344 C 37.386719 11.441406 35.597656 9.652344 33.386719 9.652344 L 10.066406 9.652344 C 9.183594 9.652344 8.335938 10.003906 7.710938 10.628906 C 7.085938 11.253906 6.734375 12.101562 6.734375 12.984375 C 6.734375 17.484375 6.734375 28.410156 6.734375 33.480469 C 6.734375 33.636719 6.742188 33.792969 6.761719 33.945312 Z M 29.988281 13.71875 C 28.308594 13.71875 26.917969 15.109375 26.917969 16.847656 C 26.917969 18.585938 28.308594 19.976562 29.988281 19.976562 C 31.671875 19.976562 33.0625 18.585938 33.0625 16.847656 C 33.0625 15.109375 31.671875 13.71875 29.988281 13.71875 Z M 29.988281 13.71875 " fill-opacity="1" fill-rule="evenodd"/></g><path fill="#2f4bad" d="M 5.402344 33.640625 L 5.402344 13.027344 C 5.402344 11.777344 5.898438 10.582031 6.78125 9.699219 C 7.664062 8.816406 8.859375 8.320312 10.109375 8.320312 L 33.933594 8.320312 L 33.933594 6.996094 C 33.933594 5.9375 33.511719 4.921875 32.761719 4.171875 C 32.011719 3.421875 30.996094 3 29.9375 3 C 24.042969 3 9.96875 3 4.078125 3 C 3.019531 3 2 3.421875 1.25 4.171875 C 0.503906 4.921875 0.0820312 5.9375 0.0820312 6.996094 C 0.0820312 12.339844 0.0820312 24.300781 0.0820312 29.644531 C 0.0820312 31.851562 1.871094 33.640625 4.078125 33.640625 Z M 5.402344 33.640625 " fill-opacity="1" fill-rule="evenodd"/></svg>