<svg xmlns="http://www.w3.org/2000/svg" xmlns:xlink="http://www.w3.org/1999/xlink" width="50" zoomAndPan="magnify" viewBox="0 0 37.5 37.499999" height="50" preserveAspectRatio="xMidYMid meet" version="1.0"><defs><clipPath id="4a4254ac7d"><path d="M 0 3.75 L 25 3.75 L 25 37.007812 L 0 37.007812 Z M 0 3.75 " clip-rule="nonzero"/></clipPath><clipPath id="8ac90b5cd9"><path d="M 7 13 L 37.007812 13 L 37.007812 29 L 7 29 Z M 7 13 " clip-rule="nonzero"/></clipPath></defs><g clip-path="url(#4a4254ac7d)"><path fill="#2f4bad" d="M 18.75 37.5 L 5.625 37.5 C 5.253906 37.5 4.890625 37.464844 4.527344 37.390625 C 4.164062 37.320312 3.8125 37.210938 3.472656 37.070312 C 3.132812 36.929688 2.808594 36.753906 2.5 36.550781 C 2.195312 36.34375 1.910156 36.113281 1.648438 35.851562 C 1.386719 35.589844 1.15625 35.304688 0.949219 35 C 0.746094 34.691406 0.570312 34.367188 0.429688 34.027344 C 0.289062 33.6875 0.179688 33.335938 0.109375 32.972656 C 0.0351562 32.609375 0 32.246094 0 31.875 L 0 9.375 C 0 9.003906 0.0351562 8.640625 0.109375 8.277344 C 0.179688 7.914062 0.289062 7.5625 0.429688 7.222656 C 0.570312 6.882812 0.746094 6.558594 0.949219 6.25 C 1.15625 5.945312 1.386719 5.660156 1.648438 5.398438 C 1.910156 5.136719 2.195312 4.90625 2.5 4.699219 C 2.808594 4.496094 3.132812 4.320312 3.472656 4.179688 C 3.8125 4.039062 4.164062 3.929688 4.527344 3.859375 C 4.890625 3.785156 5.253906 3.75 5.625 3.75 L 18.75 3.75 C 19.121094 3.75 19.484375 3.785156 19.847656 3.859375 C 20.210938 3.929688 20.5625 4.039062 20.902344 4.179688 C 21.242188 4.320312 21.566406 4.496094 21.875 4.699219 C 22.179688 4.90625 22.464844 5.136719 22.726562 5.398438 C 22.988281 5.660156 23.21875 5.945312 23.425781 6.25 C 23.628906 6.558594 23.804688 6.882812 23.945312 7.222656 C 24.085938 7.5625 24.195312 7.914062 24.265625 8.277344 C 24.339844 8.640625 24.375 9.003906 24.375 9.375 L 24.375 13.125 C 24.375 13.375 24.328125 13.613281 24.230469 13.84375 C 24.136719 14.070312 24 14.273438 23.824219 14.449219 C 23.648438 14.625 23.445312 14.761719 23.21875 14.855469 C 22.988281 14.953125 22.75 15 22.5 15 C 22.25 15 22.011719 14.953125 21.78125 14.855469 C 21.554688 14.761719 21.351562 14.625 21.175781 14.449219 C 21 14.273438 20.863281 14.070312 20.769531 13.84375 C 20.671875 13.613281 20.625 13.375 20.625 13.125 L 20.625 9.375 C 20.625 9.125 20.578125 8.886719 20.480469 8.65625 C 20.386719 8.429688 20.25 8.226562 20.074219 8.050781 C 19.898438 7.875 19.695312 7.738281 19.46875 7.644531 C 19.238281 7.546875 19 7.5 18.75 7.5 L 5.625 7.5 C 5.375 7.5 5.136719 7.546875 4.90625 7.644531 C 4.679688 7.738281 4.476562 7.875 4.300781 8.050781 C 4.125 8.226562 3.988281 8.429688 3.894531 8.65625 C 3.796875 8.886719 3.75 9.125 3.75 9.375 L 3.75 31.875 C 3.75 32.125 3.796875 32.363281 3.894531 32.59375 C 3.988281 32.820312 4.125 33.023438 4.300781 33.199219 C 4.476562 33.375 4.679688 33.511719 4.90625 33.605469 C 5.136719 33.703125 5.375 33.75 5.625 33.75 L 18.75 33.75 C 19 33.75 19.238281 33.703125 19.46875 33.605469 C 19.695312 33.511719 19.898438 33.375 20.074219 33.199219 C 20.25 33.023438 20.386719 32.820312 20.480469 32.59375 C 20.578125 32.363281 20.625 32.125 20.625 31.875 L 20.625 28.125 C 20.625 27.875 20.671875 27.636719 20.769531 27.40625 C 20.863281 27.179688 21 26.976562 21.175781 26.800781 C 21.351562 26.625 21.554688 26.488281 21.78125 26.394531 C 22.011719 26.296875 22.25 26.25 22.5 26.25 C 22.75 26.25 22.988281 26.296875 23.21875 26.394531 C 23.445312 26.488281 23.648438 26.625 23.824219 26.800781 C 24 26.976562 24.136719 27.179688 24.230469 27.40625 C 24.328125 27.636719 24.375 27.875 24.375 28.125 L 24.375 31.875 C 24.375 32.246094 24.339844 32.609375 24.265625 32.972656 C 24.195312 33.335938 24.085938 33.6875 23.945312 34.027344 C 23.804688 34.367188 23.628906 34.691406 23.425781 35 C 23.21875 35.304688 22.988281 35.589844 22.726562 35.851562 C 22.464844 36.113281 22.179688 36.34375 21.875 36.550781 C 21.566406 36.753906 21.242188 36.929688 20.902344 37.070312 C 20.5625 37.210938 20.210938 37.320312 19.847656 37.390625 C 19.484375 37.464844 19.121094 37.5 18.75 37.5 Z M 18.75 37.5 " fill-opacity="1" fill-rule="nonzero"/></g><g clip-path="url(#8ac90b5cd9)"><path fill="#2f4bad" d="M 30 28.125 C 29.621094 28.125 29.273438 28.019531 28.957031 27.808594 C 28.644531 27.597656 28.414062 27.316406 28.269531 26.96875 C 28.121094 26.617188 28.085938 26.257812 28.160156 25.882812 C 28.234375 25.511719 28.40625 25.191406 28.675781 24.925781 L 31.097656 22.5 L 9.375 22.5 C 9.125 22.5 8.886719 22.453125 8.65625 22.355469 C 8.429688 22.261719 8.226562 22.125 8.050781 21.949219 C 7.875 21.773438 7.738281 21.570312 7.644531 21.34375 C 7.546875 21.113281 7.5 20.875 7.5 20.625 C 7.5 20.375 7.546875 20.136719 7.644531 19.90625 C 7.738281 19.679688 7.875 19.476562 8.050781 19.300781 C 8.226562 19.125 8.429688 18.988281 8.65625 18.894531 C 8.886719 18.796875 9.125 18.75 9.375 18.75 L 31.097656 18.75 L 28.675781 16.324219 C 28.503906 16.148438 28.371094 15.945312 28.28125 15.71875 C 28.191406 15.488281 28.144531 15.253906 28.148438 15.007812 C 28.148438 14.761719 28.199219 14.523438 28.292969 14.296875 C 28.390625 14.070312 28.523438 13.871094 28.695312 13.695312 C 28.871094 13.523438 29.070312 13.390625 29.296875 13.292969 C 29.523438 13.199219 29.761719 13.148438 30.007812 13.148438 C 30.253906 13.144531 30.488281 13.191406 30.71875 13.28125 C 30.945312 13.371094 31.148438 13.503906 31.324219 13.675781 L 36.949219 19.300781 C 37.28125 19.628906 37.464844 20.027344 37.5 20.492188 C 37.507812 20.617188 37.503906 20.742188 37.488281 20.867188 C 37.441406 21.238281 37.296875 21.5625 37.054688 21.84375 C 37.019531 21.886719 36.984375 21.921875 36.945312 21.960938 L 31.332031 27.574219 C 30.964844 27.941406 30.519531 28.125 30 28.125 Z M 30 28.125 " fill-opacity="1" fill-rule="nonzero"/></g></svg>