<svg xmlns="http://www.w3.org/2000/svg" xmlns:xlink="http://www.w3.org/1999/xlink" width="50" zoomAndPan="magnify" viewBox="0 0 37.5 37.499999" height="50" preserveAspectRatio="xMidYMid meet" version="1.0"><defs><clipPath id="43f207f500"><path d="M 0 4.5 L 30 4.5 L 30 32 L 0 32 Z M 0 4.5 " clip-rule="nonzero"/></clipPath><clipPath id="04e9d42c00"><path d="M 11 10 L 37.007812 10 L 37.007812 37.007812 L 11 37.007812 Z M 11 10 " clip-rule="nonzero"/></clipPath></defs><g clip-path="url(#43f207f500)"><path fill="#2f4bad" d="M 29.28125 14.164062 C 29.28125 8.839844 24.953125 4.507812 19.632812 4.507812 L 9.648438 4.507812 C 4.328125 4.507812 0 8.839844 0 14.164062 L 0 16.800781 C 0 20.957031 2.640625 24.636719 6.570312 25.953125 L 6.953125 26.082031 L 6.75 26.4375 C 6.226562 27.339844 5.515625 28.761719 4.574219 30.78125 C 4.460938 31.023438 4.511719 31.3125 4.699219 31.503906 C 4.886719 31.691406 5.183594 31.742188 5.417969 31.632812 L 16.726562 26.460938 L 19.632812 26.460938 C 24.953125 26.460938 29.28125 22.128906 29.28125 16.804688 Z M 28 16.800781 C 28 21.421875 24.246094 25.179688 19.632812 25.179688 L 16.585938 25.179688 C 16.496094 25.179688 16.402344 25.203125 16.320312 25.238281 L 6.488281 29.738281 L 6.914062 28.890625 C 7.300781 28.117188 8.003906 26.757812 8.34375 26.316406 L 8.378906 26.265625 L 8.433594 26.234375 C 8.601562 26.132812 8.710938 25.960938 8.738281 25.765625 C 8.78125 25.425781 8.550781 25.113281 8.210938 25.054688 C 4.195312 24.351562 1.28125 20.882812 1.28125 16.804688 L 1.28125 14.164062 C 1.28125 9.546875 5.035156 5.785156 9.648438 5.785156 L 19.632812 5.785156 C 24.246094 5.785156 28 9.546875 28 14.164062 Z M 28 16.800781 " fill-opacity="1" fill-rule="nonzero"/></g><path fill="#2f4bad" d="M 7.097656 13.886719 C 6.09375 13.886719 5.277344 14.703125 5.277344 15.707031 C 5.277344 16.710938 6.09375 17.523438 7.097656 17.523438 C 8.101562 17.523438 8.917969 16.707031 8.917969 15.707031 C 8.917969 14.703125 8.101562 13.886719 7.097656 13.886719 Z M 7.097656 13.886719 " fill-opacity="1" fill-rule="nonzero"/><path fill="#2f4bad" d="M 22.183594 13.886719 C 21.179688 13.886719 20.363281 14.703125 20.363281 15.707031 C 20.363281 16.710938 21.179688 17.523438 22.183594 17.523438 C 23.1875 17.523438 24.003906 16.707031 24.003906 15.707031 C 24.003906 14.703125 23.1875 13.886719 22.183594 13.886719 Z M 22.183594 13.886719 " fill-opacity="1" fill-rule="nonzero"/><path fill="#2f4bad" d="M 14.640625 13.886719 C 13.636719 13.886719 12.820312 14.703125 12.820312 15.707031 C 12.820312 16.710938 13.636719 17.523438 14.640625 17.523438 C 15.644531 17.523438 16.460938 16.707031 16.460938 15.707031 C 16.460938 14.703125 15.644531 13.886719 14.640625 13.886719 Z M 14.640625 13.886719 " fill-opacity="1" fill-rule="nonzero"/><g clip-path="url(#04e9d42c00)"><path fill="#2f4bad" d="M 12.96875 29.324219 L 11.652344 29.929688 C 13.332031 31.351562 15.5 32.214844 17.867188 32.214844 L 20.773438 32.214844 L 32.082031 37.386719 C 32.316406 37.496094 32.613281 37.445312 32.800781 37.257812 C 32.988281 37.066406 33.039062 36.777344 32.925781 36.535156 C 31.984375 34.515625 31.273438 33.097656 30.75 32.191406 L 30.546875 31.839844 L 30.929688 31.710938 C 34.859375 30.390625 37.5 26.710938 37.5 22.558594 L 37.5 19.921875 C 37.5 15.210938 34.113281 11.292969 29.65625 10.441406 C 29.824219 10.902344 29.964844 11.375 30.070312 11.863281 C 30.074219 11.863281 30.078125 11.863281 30.078125 11.863281 C 30.074219 11.863281 30.074219 11.863281 30.070312 11.863281 C 30.234375 12.605469 30.324219 13.375 30.324219 14.167969 L 30.324219 16.804688 C 30.324219 22.703125 25.527344 27.503906 19.632812 27.503906 L 16.953125 27.503906 M 28.761719 31.523438 L 28.761719 31.519531 " fill-opacity="1" fill-rule="nonzero"/></g></svg>