<svg xmlns="http://www.w3.org/2000/svg" xmlns:xlink="http://www.w3.org/1999/xlink" width="50" zoomAndPan="magnify" viewBox="0 0 37.5 37.499999" height="50" preserveAspectRatio="xMidYMid meet" version="1.0"><defs><clipPath id="6d204ba102"><path d="M 11 34 L 19 34 L 19 37.007812 L 11 37.007812 Z M 11 34 " clip-rule="nonzero"/></clipPath><clipPath id="65bcfcda79"><path d="M 0 4.832031 L 30 4.832031 L 30 34 L 0 34 Z M 0 4.832031 " clip-rule="nonzero"/></clipPath></defs><g clip-path="url(#6d204ba102)"><path fill="#2f4bad" d="M 18.769531 34.960938 C 18.695312 34.851562 18.550781 34.78125 18.457031 34.792969 L 11.5625 34.832031 C 11.5625 34.832031 11.316406 34.898438 11.25 35.007812 C 11.183594 35.113281 11.167969 35.246094 11.222656 35.359375 C 11.878906 36.863281 13.367188 37.832031 15.003906 37.832031 C 16.667969 37.832031 18.15625 36.84375 18.804688 35.3125 C 18.851562 35.195312 18.835938 35.058594 18.769531 34.960938 Z M 18.769531 34.960938 " fill-opacity="1" fill-rule="nonzero"/></g><g clip-path="url(#65bcfcda79)"><path fill="#2f4bad" d="M 29.730469 31.257812 L 25.503906 27.730469 L 25.503906 18.332031 C 25.503906 13.570312 22.308594 9.542969 17.957031 8.257812 C 17.976562 8.121094 18.003906 7.980469 18.003906 7.832031 C 18.003906 6.175781 16.660156 4.832031 15.003906 4.832031 C 13.347656 4.832031 12.003906 6.175781 12.003906 7.832031 C 12.003906 7.980469 12.03125 8.121094 12.050781 8.257812 C 7.695312 9.542969 4.503906 13.5625 4.503906 18.332031 L 4.503906 27.730469 L 0.269531 31.257812 C 0.09375 31.398438 0 31.613281 0 31.832031 L 0 32.582031 C 0 32.996094 0.335938 33.332031 0.75 33.332031 L 29.25 33.332031 C 29.664062 33.332031 30 32.996094 30 32.582031 L 30 31.832031 C 30 31.613281 29.898438 31.398438 29.730469 31.257812 Z M 13.515625 7.953125 C 13.515625 7.914062 13.5 7.871094 13.5 7.832031 C 13.5 7.003906 14.175781 6.328125 15.003906 6.328125 C 15.832031 6.328125 16.5 7.003906 16.5 7.832031 C 16.5 7.871094 16.492188 7.914062 16.484375 7.953125 C 16 7.886719 15.503906 7.832031 14.996094 7.832031 C 14.488281 7.832031 14 7.878906 13.515625 7.953125 Z M 13.515625 7.953125 " fill-opacity="1" fill-rule="nonzero"/></g></svg>