<svg xmlns="http://www.w3.org/2000/svg" xmlns:xlink="http://www.w3.org/1999/xlink" width="500" zoomAndPan="magnify" viewBox="0 0 375 374.999991" height="500" preserveAspectRatio="xMidYMid meet" version="1.0"><path fill="#a6a6a6" d="M 243.75 193.964844 L 131.25 193.964844 C 58.835938 193.964844 0 252.800781 0 325.214844 L 0 368.535156 C 0 372.414062 2.585938 375 6.464844 375 L 368.535156 375 C 372.414062 375 375 372.414062 375 368.535156 L 375 325.214844 C 375 252.800781 316.164062 193.964844 243.75 193.964844 Z M 243.75 193.964844 " fill-opacity="1" fill-rule="nonzero"/><path fill="#a6a6a6" d="M 187.5 168.101562 C 234.050781 168.101562 271.550781 130.601562 271.550781 84.050781 C 271.550781 37.5 234.050781 0 187.5 0 C 140.949219 0 103.449219 37.5 103.449219 84.050781 C 103.449219 130.601562 140.949219 168.101562 187.5 168.101562 Z M 187.5 168.101562 " fill-opacity="1" fill-rule="nonzero"/></svg>