<svg xmlns="http://www.w3.org/2000/svg" xmlns:xlink="http://www.w3.org/1999/xlink" width="50" zoomAndPan="magnify" viewBox="0 0 37.5 37.499999" height="50" preserveAspectRatio="xMidYMid meet" version="1.0"><defs><clipPath id="9a367814e9"><path d="M 0 4.875 L 17 4.875 L 17 34 L 0 34 Z M 0 4.875 " clip-rule="nonzero"/></clipPath><clipPath id="8042c800ce"><path d="M 8 9 L 29.25 9 L 29.25 37.007812 L 8 37.007812 Z M 8 9 " clip-rule="nonzero"/></clipPath></defs><g clip-path="url(#9a367814e9)"><path fill="#2f4bad" d="M 11.082031 4.875 C 11.496094 4.96875 11.921875 5.039062 12.339844 5.152344 C 14.089844 5.65625 15.480469 6.667969 16.554688 8.171875 C 13.242188 9.222656 10.984375 11.355469 10.046875 14.722656 C 9.09375 18.167969 10.160156 21.074219 12.652344 23.546875 C 9.171875 25.808594 6.90625 28.765625 7.113281 33.167969 C 6.992188 33.175781 6.898438 33.195312 6.800781 33.195312 C 5.683594 33.195312 4.5625 33.203125 3.433594 33.195312 C 1.683594 33.183594 0.371094 32.0625 0.0664062 30.332031 C 0.0585938 30.253906 0.03125 30.183594 0.0078125 30.113281 L 0.0078125 27.171875 C 0.0234375 27.085938 0.0585938 27 0.0664062 26.910156 C 0.164062 25.875 0.492188 24.910156 1.015625 24.023438 C 2.324219 21.804688 4.269531 20.359375 6.621094 19.421875 C 6.777344 19.359375 6.933594 19.300781 7.019531 19.265625 C 6.273438 18.636719 5.472656 18.0625 4.789062 17.375 C 3.496094 16.070312 2.671875 14.488281 2.636719 12.589844 C 2.566406 9.128906 4.960938 5.996094 8.3125 5.136719 C 8.695312 5.039062 9.085938 4.960938 9.476562 4.875 Z M 11.082031 4.875 " fill-opacity="1" fill-rule="nonzero"/></g><g clip-path="url(#8042c800ce)"><path fill="#2f4bad" d="M 15.816406 23.910156 C 15.304688 23.535156 14.777344 23.195312 14.300781 22.789062 C 12.875 21.578125 11.800781 20.117188 11.488281 18.230469 C 11.132812 16.082031 11.679688 14.121094 13.050781 12.453125 C 15.011719 10.050781 17.589844 9.078125 20.617188 9.738281 C 23.808594 10.433594 25.789062 12.511719 26.5 15.714844 C 27.046875 18.160156 26.242188 20.246094 24.558594 22.003906 C 23.921875 22.65625 23.140625 23.171875 22.421875 23.746094 C 22.351562 23.796875 22.285156 23.839844 22.171875 23.910156 C 22.578125 24.085938 22.960938 24.222656 23.324219 24.398438 C 25.546875 25.441406 27.359375 26.929688 28.496094 29.15625 C 28.972656 30.085938 29.242188 31.078125 29.207031 32.140625 C 29.183594 32.984375 29.199219 33.828125 29.199219 34.679688 C 29.199219 36.1875 28.089844 37.535156 26.613281 37.8125 C 26.386719 37.855469 26.152344 37.875 25.917969 37.875 L 12.09375 37.875 C 10.34375 37.875 8.859375 36.527344 8.804688 34.769531 C 8.773438 33.515625 8.746094 32.246094 8.929688 31.011719 C 9.214844 29.085938 10.332031 27.582031 11.757812 26.304688 C 12.867188 25.300781 14.144531 24.570312 15.539062 24.050781 C 15.628906 24.015625 15.707031 23.988281 15.785156 23.953125 C 15.808594 23.945312 15.816406 23.917969 15.816406 23.910156 Z M 15.816406 23.910156 " fill-opacity="1" fill-rule="nonzero"/></g></svg>