<svg xmlns="http://www.w3.org/2000/svg" xmlns:xlink="http://www.w3.org/1999/xlink" width="50" zoomAndPan="magnify" viewBox="0 0 37.5 37.499999" height="50" preserveAspectRatio="xMidYMid meet" version="1.0"><defs><clipPath id="a17ac641f1"><path d="M 0 0 L 37.007812 0 L 37.007812 37.007812 L 0 37.007812 Z M 0 0 " clip-rule="nonzero"/></clipPath></defs><g clip-path="url(#a17ac641f1)"><path fill="#2f4bad" d="M 10.792969 0.0195312 L 26.71875 0.0195312 C 29.683594 0.0195312 32.378906 1.226562 34.335938 3.164062 C 36.296875 5.105469 37.511719 7.785156 37.511719 10.730469 L 37.511719 26.765625 C 37.511719 29.707031 36.296875 32.382812 34.34375 34.324219 L 34.335938 34.328125 C 32.378906 36.269531 29.679688 37.476562 26.722656 37.476562 L 10.792969 37.476562 C 7.824219 37.476562 5.125 36.269531 3.167969 34.328125 L 3.097656 34.246094 C 1.183594 32.316406 0 29.667969 0 26.765625 L 0 10.730469 C 0 7.78125 1.214844 5.105469 3.167969 3.164062 C 5.125 1.222656 7.824219 0.0195312 10.792969 0.0195312 Z M 28.105469 9.472656 L 28.125 9.507812 L 34.761719 9.507812 C 34.492188 7.777344 33.660156 6.222656 32.464844 5.03125 C 30.988281 3.566406 28.957031 2.660156 26.71875 2.660156 L 23.996094 2.660156 Z M 25.035156 9.507812 L 20.90625 2.660156 L 11.847656 2.660156 L 16.027344 9.507812 Z M 12.933594 9.507812 L 8.890625 2.882812 C 7.414062 3.234375 6.089844 3.992188 5.050781 5.03125 C 3.851562 6.21875 3.023438 7.777344 2.75 9.507812 Z M 34.851562 12.148438 L 2.660156 12.148438 L 2.660156 26.765625 C 2.660156 28.953125 3.546875 30.941406 4.980469 32.398438 L 5.050781 32.464844 C 6.523438 33.925781 8.558594 34.839844 10.792969 34.839844 L 26.71875 34.839844 C 28.957031 34.839844 30.988281 33.929688 32.460938 32.46875 L 32.464844 32.464844 C 33.9375 31.003906 34.851562 28.984375 34.851562 26.765625 Z M 15.648438 16.769531 L 23.886719 22.085938 C 24.019531 22.171875 24.140625 22.28125 24.234375 22.417969 C 24.609375 22.957031 24.472656 23.695312 23.929688 24.070312 L 15.722656 28.875 C 15.515625 29.042969 15.25 29.144531 14.960938 29.144531 C 14.296875 29.144531 13.757812 28.609375 13.757812 27.953125 L 13.757812 17.742188 L 13.765625 17.742188 C 13.765625 17.507812 13.835938 17.273438 13.980469 17.0625 C 14.359375 16.523438 15.109375 16.394531 15.648438 16.769531 Z M 15.648438 16.769531 " fill-opacity="1" fill-rule="nonzero"/></g></svg>