<svg xmlns="http://www.w3.org/2000/svg" xmlns:xlink="http://www.w3.org/1999/xlink" width="50" zoomAndPan="magnify" viewBox="0 0 37.5 37.499999" height="50" preserveAspectRatio="xMidYMid meet" version="1.0"><defs><clipPath id="45692d1460"><path d="M 0 0 L 37.007812 0 L 37.007812 37.007812 L 0 37.007812 Z M 0 0 " clip-rule="nonzero"/></clipPath></defs><g clip-path="url(#45692d1460)"><path fill="#ffda6a" d="M 37.503906 18.75 C 37.503906 29.105469 29.105469 37.503906 18.75 37.503906 C 8.394531 37.503906 0 29.105469 0 18.75 C 0 8.394531 8.394531 0 18.75 0 C 29.105469 0 37.503906 8.394531 37.503906 18.75 " fill-opacity="1" fill-rule="nonzero"/></g><path fill="#000000" d="M 12.792969 12.597656 C 12.5 14.390625 11.292969 15.683594 10.09375 15.488281 C 8.894531 15.296875 8.15625 13.683594 8.449219 11.894531 C 8.738281 10.101562 9.945312 8.804688 11.144531 9 C 12.34375 9.195312 13.082031 10.804688 12.792969 12.597656 " fill-opacity="1" fill-rule="nonzero"/><path fill="#000000" d="M 23.753906 12.597656 C 24.042969 14.390625 25.253906 15.683594 26.453125 15.488281 C 27.652344 15.296875 28.390625 13.683594 28.097656 11.894531 C 27.808594 10.101562 26.601562 8.804688 25.402344 9 C 24.199219 9.195312 23.464844 10.804688 23.753906 12.597656 " fill-opacity="1" fill-rule="nonzero"/><path fill="#000000" d="M 23.558594 25.328125 C 23.558594 29.179688 21.421875 32.300781 18.789062 32.300781 C 16.160156 32.300781 14.023438 29.179688 14.023438 25.328125 C 14.023438 21.480469 16.160156 18.355469 18.789062 18.355469 C 21.421875 18.355469 23.558594 21.480469 23.558594 25.328125 " fill-opacity="1" fill-rule="nonzero"/><path fill="#000000" d="M 13.199219 4.34375 C 11.390625 3.644531 9.335938 4.007812 7.875 5.261719 C 7.652344 5.453125 7.652344 5.800781 7.882812 5.992188 L 7.890625 5.996094 C 8.070312 6.144531 8.328125 6.136719 8.503906 5.984375 C 9.695312 4.964844 11.371094 4.667969 12.851562 5.234375 C 13.074219 5.320312 13.328125 5.234375 13.445312 5.023438 L 13.449219 5.015625 C 13.589844 4.761719 13.46875 4.445312 13.199219 4.34375 " fill-opacity="1" fill-rule="nonzero"/><path fill="#000000" d="M 23.328125 4.34375 C 25.136719 3.644531 27.191406 4.007812 28.648438 5.261719 C 28.875 5.453125 28.871094 5.800781 28.640625 5.992188 L 28.632812 5.996094 C 28.453125 6.144531 28.195312 6.136719 28.019531 5.984375 C 26.828125 4.964844 25.152344 4.667969 23.675781 5.234375 C 23.449219 5.320312 23.195312 5.234375 23.082031 5.023438 L 23.074219 5.015625 C 22.9375 4.761719 23.058594 4.445312 23.328125 4.34375 " fill-opacity="1" fill-rule="nonzero"/></svg>